<?xml version="1.0" encoding="utf-8"?>
<!-- Generator: Adobe Illustrator 17.0.2, SVG Export Plug-In . SVG Version: 6.00 Build 0)  -->
<!DOCTYPE svg PUBLIC "-//W3C//DTD SVG 1.0//EN" "http://www.w3.org/TR/2001/REC-SVG-20010904/DTD/svg10.dtd">
<svg version="1.0" id="Layer_1" xmlns="http://www.w3.org/2000/svg" xmlns:xlink="http://www.w3.org/1999/xlink" x="0px" y="0px"
	 width="50px" height="50px" viewBox="0 0 50 50" style="enable-background:new 0 0 50 50;" xml:space="preserve">
<path d="M43.655,11.825c0.391,0.391,0.391,1.023,0,1.414L11.196,45.697c-0.124,0.124-0.278,0.213-0.448,0.259l-7.489,2.01
	C3.173,47.989,3.086,48,3,48c-0.262,0-0.517-0.103-0.707-0.293c-0.253-0.253-0.352-0.621-0.259-0.966l2.009-7.489
	c0.045-0.17,0.135-0.324,0.259-0.448L36.761,6.345c0.391-0.391,1.023-0.391,1.414,0s0.391,1.023,0,1.414l-32.27,32.27l-0.003,0.011
	l4.057,4.057l0.011-0.003l32.27-32.269C42.632,11.435,43.265,11.435,43.655,11.825z M46.575,3.426c-1.903-1.902-4.984-1.9-6.885,0
	c0,0-0.83,0.83-0.825,0.825l6.884,6.883c-0.005,0.004,0.824-0.825,0.824-0.825C48.474,8.408,48.474,5.326,46.575,3.426z"/>
</svg>
