<?xml version="1.0" encoding="utf-8"?>
<!-- Generator: Adobe Illustrator 17.1.0, SVG Export Plug-In . SVG Version: 6.00 Build 0)  -->
<!DOCTYPE svg PUBLIC "-//W3C//DTD SVG 1.0//EN" "http://www.w3.org/TR/2001/REC-SVG-20010904/DTD/svg10.dtd">
<svg version="1.0" id="Layer_1" xmlns="http://www.w3.org/2000/svg" xmlns:xlink="http://www.w3.org/1999/xlink" x="0px" y="0px"
	 viewBox="0 0 50 50" style="enable-background:new 0 0 50 50;" xml:space="preserve">
<path d="M42.799,9c-0.45-1.118-1.6-2-2.799-2h-7V6.7C33,3.582,31.486,2,28.5,2h-7C18.514,2,17,3.582,17,6.7V7h-7
	C8.8,7,7.652,7.882,7.201,9H5v6h3v29c0,2.243,1.757,4,4,4h26c2.243,0,4-1.757,4-4V15h3V9H42.799z M19,6.7C19,4.681,19.631,4,21.5,4
	h7C30.369,4,31,4.681,31,6.7V7H19V6.7z M40,44c0,1.141-0.859,2-2,2H12c-1.14,0-2-0.859-2-2V15h30V44z M43,13H7v-2h2v-1
	c0-0.449,0.551-1,1-1h30c0.448,0,1,0.551,1,1v1h2V13z M32,41V20c0-0.552,0.447-1,1-1s1,0.448,1,1v21c0,0.553-0.447,1-1,1
	S32,41.553,32,41z M16,41V20c0-0.552,0.448-1,1-1s1,0.448,1,1v21c0,0.553-0.448,1-1,1S16,41.553,16,41z M24,41V20
	c0-0.552,0.448-1,1-1c0.553,0,1,0.448,1,1v21c0,0.553-0.447,1-1,1C24.448,42,24,41.553,24,41z"/>
</svg>
